<?xml version="1.0" encoding="UTF-8"?>
<svg xmlns="http://www.w3.org/2000/svg" version="1.2" baseProfile="tiny-ps" viewBox="0 0 550 550">
<title>Felixxsv Gallery</title>
<rect width="550" height="550" fill="#fff"/>
<g transform="translate(-91.959777,515.628352) scale(0.100000,-0.100000)" fill="#94a3b8"><path d="M1529 5138 c-177 -194 -250 -394 -257 -708 l-7 -265 42 -97 c47 -110 46 -112 -9 -62 -49 44 -50 43 -33 -31 8 -33 24 -116 35 -185 24 -142 47 -236 67 -265 7 -11 13 -32 13 -47 0 -18 5 -28 15 -28 45 0 -188 -169 -235 -171 l-25 -1 25 -8 c14 -5 51 -14 83 -20 74 -15 72 -22 -15 -50 -141 -44 -191 -77 -70 -46 101 27 101 25 -17 -115 -121 -144 -129 -159 -77 -159 19 0 41 -2 49 -5 7 -3 37 10 65 29 l52 35 -30 -45 c-17 -24 -35 -44 -40 -44 -6 0 -9 -4 -8 -10 2 -5 -8 -20 -22 -32 -14 -13 -19 -19 -10 -13 8 5 -3 -10 -24 -33 -22 -22 -44 -38 -49 -35 -6 3 -7 1 -4 -4 8 -13 -10 -29 -82 -70 -66 -38 -58 -40 61 -12 99 23 138 15 82 -17 -42 -24 -79 -122 -99 -259 -11 -78 -24 -127 -44 -170 -38 -75 -42 -75 83 -16 58 27 106 49 106 47 0 -78 81 -508 95 -502 6 2 51 32 99 66 49 33 90 59 92 57 7 -7 -44 -152 -66 -189 -11 -20 -22 -49 -24 -64 -3 -16 -7 -38 -11 -49 -5 -14 2 -11 24 13 34 35 41 38 41 20 1 -7 7 -26 14 -43 l13 -30 23 78 c13 43 26 80 30 82 12 8 119 -360 182 -630 l15 -60 11 53 c13 60 79 242 93 257 5 5 9 -8 9 -34 0 -23 12 -93 26 -154 14 -62 29 -157 33 -212 7 -86 8 -91 10 -36 l1 64 32 -7 c64 -13 177 -138 246 -272 46 -89 48 -86 43 121 -4 212 -2 215 60 97 41 -79 55 -95 155 -181 60 -51 159 -140 221 -197 116 -109 133 -119 133 -81 0 12 9 28 20 35 18 11 20 10 20 -15 0 -26 1 -26 21 12 12 22 30 54 40 71 10 17 16 34 13 37 -9 8 25 59 34 53 4 -2 8 4 8 14 0 22 -17 12 -49 -28 -19 -22 -105 -78 -111 -71 -2 2 -6 77 -9 167 l-6 162 47 24 c70 35 92 40 92 22 0 -31 18 -23 45 20 23 36 30 42 35 29 5 -13 12 -8 34 26 51 78 129 179 137 179 17 0 169 102 164 110 -3 5 0 12 6 16 8 4 9 3 5 -4 -4 -7 -3 -12 1 -12 5 0 15 19 23 41 14 40 17 41 63 45 l47 3 -6 -57 c-6 -61 -31 -119 -107 -247 l-47 -80 -6 -188 c-6 -214 -8 -209 46 -118 22 38 61 93 87 122 27 29 62 69 78 87 34 38 119 58 135 32 5 -8 10 4 15 31 8 52 85 372 91 378 2 2 6 -5 10 -15 3 -10 15 -41 26 -68 11 -27 31 -90 44 -140 12 -50 23 -89 24 -86 2 28 75 349 95 421 67 243 116 353 102 226 -12 -96 20 -162 43 -90 17 53 26 60 50 38 49 -44 4 65 -65 160 -18 25 -45 86 -45 102 0 18 90 -13 150 -51 39 -25 77 -46 84 -46 17 0 42 160 55 353 11 163 6 154 67 123 197 -98 230 -83 74 33 -88 64 -170 162 -203 239 -32 76 -32 72 -8 72 11 0 23 4 26 10 7 11 -99 148 -120 156 -36 14 -88 114 -60 114 9 0 18 7 22 16 5 14 16 15 67 9 60 -6 82 -14 154 -55 l37 -21 -34 28 c-60 50 -86 75 -72 67 11 -5 13 -2 9 14 -4 15 -2 19 8 15 33 -12 10 18 -40 54 -30 21 -115 87 -188 146 -121 98 -136 108 -163 102 -45 -10 -89 -6 -132 12 -44 19 -133 26 -133 11 0 -11 -16 -10 -180 21 -128 24 -173 38 -164 53 8 12 -38 -16 -87 -54 -39 -30 -189 -288 -189 -325 0 -11 9 -40 19 -64 11 -24 25 -71 31 -104 l13 -60 21 55 c30 78 26 75 134 110 134 45 164 63 232 146 69 83 71 79 -55 93 -94 11 -97 14 -39 36 66 25 129 16 196 -29 29 -20 60 -36 68 -36 24 -1 196 -146 303 -255 112 -116 103 -103 72 -107 -23 -3 -20 -8 50 -83 86 -92 86 -94 4 -66 -76 25 -76 25 -44 -32 31 -55 147 -338 141 -344 -2 -2 -57 23 -122 57 -117 60 -119 61 -147 45 -24 -14 -50 -16 -199 -9 -119 5 -169 4 -167 -4 5 -14 159 -142 184 -153 12 -5 -23 -6 -86 -2 l-106 6 -20 -34 c-12 -19 -29 -61 -39 -94 -24 -79 -26 -82 -87 -89 -73 -9 -72 -8 -146 -157 -91 -185 -187 -228 -388 -178 l-45 12 83 43 c197 102 247 377 81 441 -77 29 -321 26 -380 -5 -148 -79 -79 -348 113 -437 l90 -42 -60 -13 c-179 -38 -299 -7 -347 89 -15 29 -37 70 -50 90 -12 20 -32 60 -44 89 -26 62 -89 142 -112 142 -12 0 -8 -8 15 -32 54 -59 89 -123 39 -73 -16 16 -41 26 -74 31 l-50 6 -16 64 c-19 74 -52 134 -74 135 -14 0 -13 2 3 10 20 10 20 15 13 91 -9 98 -2 91 -79 78 -35 -5 -81 -10 -102 -10 l-39 0 28 33 c15 17 47 74 70 125 40 85 66 125 44 66 -16 -42 -10 -51 9 -14 11 19 17 38 15 42 -2 4 1 10 7 14 8 4 9 3 5 -4 -4 -7 -3 -12 2 -12 5 0 14 12 20 26 7 14 8 23 2 19 -5 -3 -17 -2 -26 3 -11 6 -13 11 -5 16 9 6 101 -39 101 -50 0 -2 -12 -4 -27 -4 -22 0 -25 2 -13 10 8 5 10 10 4 10 -6 0 -17 -7 -24 -16 -8 -8 -9 -14 -4 -13 16 4 138 -13 155 -22 11 -5 18 -27 22 -66 7 -72 135 -311 148 -277 4 10 24 60 45 109 125 301 153 392 160 530 3 55 10 112 16 126 12 32 -3 66 -55 123 -71 77 -85 188 -32 242 l23 23 -116 121 c-102 105 -113 120 -87 114 98 -20 247 -160 268 -252 49 -206 67 -418 67 -793 l0 -186 31 -62 c39 -78 51 -83 168 -74 l94 8 13 40 c6 22 22 74 35 115 28 88 32 221 12 390 -7 58 -14 129 -14 158 -2 42 -29 104 -29 64 0 -6 6 -13 13 -15 9 -4 8 -8 -3 -16 -19 -14 -30 -14 -30 0 0 5 5 7 12 3 8 -5 9 -2 5 9 -3 9 0 35 9 58 8 23 25 88 39 144 38 158 71 211 248 399 l75 79 -34 45 c-19 25 -33 47 -31 49 10 9 543 -136 662 -181 87 -32 91 -32 38 0 -74 44 -18 32 77 -16 38 -19 42 -20 36 -5 -5 15 -4 16 8 6 11 -9 15 -9 18 1 3 7 -41 39 -104 78 -60 36 -130 82 -155 103 -29 23 -60 40 -86 44 -31 5 -36 8 -22 13 12 4 -19 13 -83 25 l-102 19 23 24 22 24 -30 -2 c-53 -4 -76 0 -70 10 4 6 -8 10 -29 10 -19 0 -37 3 -39 8 -3 4 50 4 116 0 67 -3 142 -7 167 -7 l45 -2 -47 -22 c-61 -28 -60 -29 16 -56 36 -13 66 -26 68 -30 2 -5 15 -11 30 -14 l27 -7 -6 108 -6 108 89 42 c141 67 204 106 204 125 0 9 -2 9 -8 -1 -11 -16 -112 -29 -112 -14 0 5 11 13 24 16 13 3 31 17 39 30 l16 24 -27 -13 c-106 -51 -128 -29 -56 58 30 37 51 67 46 67 -15 0 -84 -49 -127 -91 -74 -71 -47 33 32 126 49 57 80 127 102 230 l20 90 -43 80 c-24 44 -73 126 -110 182 -77 119 -76 115 -34 111 27 -2 39 -13 75 -68 24 -36 87 -128 141 -204 l97 -139 3 53 c4 62 -22 117 -147 315 -142 225 -105 235 -467 -126 -160 -160 -293 -286 -296 -279 -2 7 -25 -5 -58 -32 -61 -50 -98 -65 -182 -73 -31 -4 -62 -13 -69 -21 -23 -28 -103 -57 -169 -61 -59 -4 -87 1 -189 33 -20 6 -23 4 -18 -10 4 -10 2 -27 -4 -38 -7 -13 -7 -18 -1 -14 6 3 4 -7 -5 -24 -20 -41 -30 -36 -84 44 -59 87 -85 114 -70 73 26 -68 5 -140 -25 -88 -10 17 -22 31 -25 31 -4 0 -10 8 -13 18 -3 10 -41 45 -83 79 -43 34 -168 153 -278 265 -432 438 -402 413 -436 376z m506 -547 c17 -21 55 -72 85 -112 152 -204 326 -319 482 -319 l29 0 -6 -97 c-8 -127 -9 -133 -43 -168 -28 -30 -32 -36 -32 -55 0 -5 -4 -9 -9 -7 -20 5 -61 -54 -51 -73 5 -10 10 -22 10 -27 -1 -4 -7 2 -14 15 l-12 23 -27 -35 -27 -35 -42 15 c-23 8 -46 18 -52 23 -6 5 -74 23 -151 40 -77 18 -168 38 -202 46 -34 8 -77 15 -95 16 l-33 0 40 15 c35 13 144 28 275 37 25 2 -9 5 -75 6 l-120 3 115 23 c63 14 131 24 150 25 52 1 17 19 -40 21 -134 3 -100 18 78 35 l73 7 -41 42 c-27 28 -40 48 -35 56 5 7 4 10 -2 6 -5 -4 -21 6 -35 21 -51 55 -58 74 -58 147 0 79 -17 115 -129 272 -59 81 -63 106 -6 34z m1588 -167 c81 -9 146 -18 145 -19 -2 -1 -45 -28 -97 -59 l-94 -56 84 0 84 0 -46 -44 c-35 -34 -58 -47 -103 -57 -64 -14 -83 -29 -37 -29 16 0 32 -4 36 -9 12 -21 -206 -154 -223 -136 -3 3 1 5 9 5 12 0 12 2 0 9 -10 6 -27 5 -48 -4 -32 -14 -42 -9 -25 11 5 5 15 25 22 44 7 19 22 47 32 62 11 16 17 32 13 38 -9 14 20 163 51 259 3 8 13 11 27 8 12 -3 88 -14 170 -23z m-1680 -9 c-2 -8 -14 -11 -26 -7 -12 3 -20 2 -17 -1 9 -10 61 -16 55 -6 -4 5 -3 14 1 21 13 21 71 -209 60 -238 -3 -8 -1 -14 4 -14 26 0 55 -88 36 -109 -17 -18 -17 -20 1 -31 16 -10 15 -11 -7 -5 -14 4 -35 8 -47 10 -37 5 -46 15 -31 33 12 15 11 15 -4 4 -14 -12 -27 -7 -91 34 l-75 48 40 18 c51 23 45 29 -24 29 -49 0 -58 4 -100 42 l-47 42 74 -3 c69 -3 74 -5 65 -22 -14 -26 -13 -30 8 -29 11 0 12 2 4 6 -10 4 -10 10 2 28 14 22 13 24 -30 46 -24 13 -44 28 -44 32 0 5 -3 6 -8 3 -4 -2 -18 2 -32 10 -16 8 -19 13 -9 14 8 0 19 -4 25 -9 5 -6 18 -2 33 10 13 10 19 19 14 19 -5 0 -10 6 -10 14 0 7 7 11 17 9 9 -2 32 0 51 5 50 14 118 12 112 -3z m415 -716 c3 -11 1 -11 -6 -1 -10 14 -45 5 -36 -9 3 -5 10 -6 16 -3 7 4 8 2 4 -5 -6 -8 0 -10 21 -6 l28 5 -27 -11 c-16 -6 -28 -15 -28 -20 0 -5 0 -12 0 -16 0 -5 3 -8 8 -8 18 -1 33 -18 24 -27 -7 -7 -25 2 -56 28 -49 40 -56 50 -30 40 8 -3 13 -2 9 3 -6 11 44 53 59 48 5 -2 11 -10 14 -18z m-116 -356 c111 -47 123 -56 126 -93 5 -53 -1 -54 -185 -36 -193 19 -431 75 -323 76 14 0 86 18 160 40 163 47 145 46 222 13z m1127 -272 c10 -19 -5 -81 -20 -81 -6 0 -7 -4 -4 -10 7 -12 -52 -50 -78 -50 -51 0 -95 69 -60 96 25 18 28 18 41 -11 23 -51 45 -31 38 34 l-7 59 41 -10 c22 -6 44 -18 49 -27z m-1302 -73 c76 -73 93 -83 190 -108 l41 -10 -42 -93 c-24 -50 -47 -102 -50 -115 -7 -21 -11 -18 -57 40 -54 68 -89 99 -101 92 -9 -6 -61 45 -102 99 -25 33 -55 123 -56 168 0 46 96 6 177 -73z m86 20 c-5 -9 60 -47 77 -45 8 2 21 7 29 11 10 6 12 5 7 -3 -45 -72 -156 -28 -156 63 l0 29 23 -24 c13 -13 22 -27 20 -31z m776 -1021 c8 -11 2 -18 -28 -35 -74 -42 -109 -20 -41 26 38 25 53 27 69 9z m691 -301 c0 -11 -89 -148 -147 -226 -36 -48 -58 -87 -52 -90 5 -4 -13 -8 -41 -9 l-51 -1 15 29 c9 16 19 31 23 33 5 1 32 32 60 66 119 144 193 219 193 198z m-611 -158 c-82 -154 -313 -212 -423 -106 l-41 39 126 -7 c139 -7 214 6 257 46 24 22 71 50 85 50 4 0 2 -10 -4 -22z"/> <path d="M4116 3998 c-39 -52 -43 -84 -12 -90 27 -5 26 -7 42 85 8 45 2 46 -30 5z"/> <path d="M3543 2954 c-6 -3 -21 -24 -33 -47 -28 -57 -38 -68 -91 -104 -42 -29 -79 -68 -143 -149 -14 -17 -34 -66 -45 -114 -12 -46 -28 -97 -36 -114 -10 -19 -12 -32 -5 -34 5 -2 10 -11 10 -19 0 -13 -2 -13 -17 -2 -15 13 -15 12 -5 -8 16 -28 15 -33 -3 -33 -8 0 -15 5 -15 12 0 6 -2 9 -5 7 -14 -14 8 -49 23 -37 13 11 15 10 9 -4 -3 -10 -2 -20 3 -23 6 -4 10 6 10 20 0 14 19 54 43 89 27 40 51 92 66 142 12 43 24 85 26 91 3 7 19 22 36 32 17 11 82 69 144 129 l113 110 -32 31 c-18 17 -34 31 -36 30 -3 0 -10 -3 -17 -5z"/> <path d="M2102 2121 c7 -12 16 -21 20 -21 16 0 121 -152 122 -177 1 -17 7 -27 19 -29 12 -2 17 3 14 14 -2 9 -9 16 -16 14 -7 -1 -10 1 -7 6 15 25 -91 174 -146 203 -17 9 -18 8 -6 -10z"/> <path d="M3288 2105 c-42 -31 -87 -85 -117 -142 -20 -38 -6 -26 54 47 31 38 76 83 98 100 23 16 34 30 26 30 -7 0 -35 -16 -61 -35z"/> <path d="M3284 1976 c-19 -8 -43 -34 -62 -65 -18 -28 -43 -56 -57 -63 -13 -6 -26 -17 -29 -24 -10 -26 11 -14 55 30 84 85 133 136 128 136 -2 -1 -18 -7 -35 -14z"/> <path d="M3145 866 c-31 -35 -75 -90 -98 -123 -22 -32 -48 -69 -58 -82 -11 -13 -19 -29 -19 -35 0 -6 8 1 17 14 9 14 23 29 30 33 7 4 39 40 70 80 31 40 59 74 63 77 13 12 61 92 57 96 -3 3 -30 -24 -62 -60z"/></g>
<g transform="translate(-92.577310,515.153112) scale(0.100000,-0.100000)" fill="#475569"><path d="M1542 5143 c-20 -17 -204 -299 -239 -368 -10 -18 -16 -59 -17 -102 l-1 -71 25 47 c15 26 40 65 56 86 16 21 45 65 64 99 34 58 92 104 120 94 6 -2 -17 -50 -51 -108 -95 -163 -109 -197 -109 -265 0 -102 39 -217 94 -275 18 -19 49 -58 69 -87 l37 -52 -33 6 c-17 3 -63 21 -102 40 l-70 34 53 -51 c65 -64 66 -62 -23 -54 -53 5 -75 3 -75 -5 0 -6 5 -11 10 -11 6 0 34 -17 63 -39 29 -21 75 -51 104 -67 58 -32 63 -42 63 -131 0 -62 -39 -133 -72 -133 -38 0 -88 63 -88 110 0 32 -9 67 -29 106 -15 33 -36 82 -46 109 -15 41 -75 129 -75 111 0 -3 18 -47 40 -98 46 -107 45 -113 -11 -64 -52 44 -52 44 -34 -24 8 -30 24 -113 35 -185 11 -71 28 -152 37 -180 10 -27 18 -52 18 -55 0 -3 7 -16 15 -30 7 -14 13 -37 12 -52 -3 -35 -8 -36 87 13 44 23 91 42 105 42 14 0 26 4 26 9 0 5 4 7 9 4 4 -3 17 1 27 9 10 8 24 14 29 15 6 0 3 -5 -5 -10 -13 -8 -13 -10 2 -10 9 0 19 -4 22 -8 2 -4 -11 -6 -31 -4 -21 3 -33 1 -30 -5 4 -6 -7 -9 -23 -8 -17 1 -30 -2 -30 -6 0 -5 -10 -13 -21 -20 -15 -8 -19 -8 -15 0 4 6 0 11 -8 11 -9 0 -13 -6 -10 -14 5 -14 -36 -46 -59 -46 -8 0 -69 -37 -137 -82 l-124 -82 34 -14 c38 -16 56 -20 83 -21 23 -1 22 -20 -5 -48 -22 -24 -36 -69 -18 -58 5 3 10 2 10 -3 0 -5 -11 -9 -25 -9 -25 0 -25 0 -9 18 9 11 13 19 7 19 -16 0 -46 -38 -38 -49 3 -6 0 -9 -8 -5 -8 3 -20 -2 -27 -11 -8 -10 -9 -15 -1 -15 6 0 11 5 11 11 0 5 5 7 11 3 8 -4 5 -10 -7 -17 -11 -6 -24 -18 -31 -26 -7 -9 -13 -12 -13 -7 0 5 -7 3 -15 -4 -12 -10 -13 -16 -3 -27 12 -15 -15 -48 -31 -38 -4 2 -7 -5 -7 -15 0 -10 4 -16 9 -13 5 3 6 -4 3 -15 -4 -12 -2 -23 5 -28 8 -4 9 -3 5 4 -4 7 -2 12 3 12 6 0 11 -4 11 -10 0 -5 5 -10 11 -10 5 0 8 4 5 9 -4 5 2 7 13 4 26 -7 65 48 48 67 -10 12 -9 12 5 1 10 -7 15 -18 11 -25 -4 -6 -8 -16 -9 -23 -8 -52 -187 -243 -279 -298 -51 -31 -42 -31 86 3 l106 28 -45 -66 c-61 -88 -79 -134 -92 -232 -15 -114 -27 -156 -56 -201 -35 -53 -33 -53 86 3 123 56 114 61 129 -65 16 -140 63 -385 74 -385 9 0 153 96 176 118 35 33 19 -43 -34 -168 -18 -41 -37 -90 -43 -109 l-11 -34 29 28 c34 33 35 32 54 -21 l14 -39 7 30 c18 76 40 135 48 132 15 -5 102 -303 172 -592 l21 -90 13 55 c12 57 77 228 92 245 5 5 9 -7 9 -29 0 -21 12 -90 26 -153 14 -64 29 -152 33 -197 5 -48 9 -64 10 -39 3 115 171 -25 287 -240 l34 -62 0 195 c1 221 -1 219 70 80 34 -67 51 -86 151 -172 63 -53 164 -141 224 -197 134 -121 125 -134 112 171 l-10 226 54 72 c30 39 76 101 103 138 27 37 83 96 124 132 101 89 151 135 127 119 -11 -7 -35 -27 -54 -43 -40 -37 -40 -36 28 124 44 104 54 119 104 160 51 41 54 46 46 74 -5 19 -5 34 2 42 6 7 7 19 3 26 -5 10 -4 10 5 2 10 -9 10 -17 2 -32 -8 -16 -8 -23 1 -28 7 -4 10 -4 6 1 -4 4 -2 17 5 29 16 30 16 68 -1 61 -7 -2 -10 -1 -7 4 3 6 14 9 25 8 15 -1 17 -4 8 -15 -13 -15 5 -32 32 -31 10 1 9 3 -3 6 -12 3 -16 10 -12 21 12 31 10 37 -8 34 -17 -3 -17 -2 0 16 10 10 23 15 28 11 7 -5 11 0 11 11 0 10 -5 16 -11 13 -5 -3 3 8 19 25 36 38 34 38 34 8 0 -18 -5 -23 -17 -19 -9 4 -13 3 -10 -1 11 -12 59 -17 59 -6 0 5 -4 10 -8 10 -9 0 -10 45 -1 54 2 3 10 -4 17 -14 10 -16 9 -18 -3 -14 -11 5 -13 2 -9 -10 3 -9 11 -13 16 -9 6 3 2 -8 -8 -26 -10 -17 -20 -27 -22 -21 -7 19 -22 10 -22 -12 0 -40 14 -50 34 -27 9 12 15 27 12 34 -8 21 15 31 61 30 23 -1 40 2 37 7 -3 4 2 8 11 8 9 0 14 4 10 9 -3 5 0 13 6 17 8 4 9 3 5 -4 -20 -33 18 -1 119 97 62 61 124 113 139 117 28 7 146 -31 146 -47 0 -25 82 31 173 118 28 26 47 42 43 36 -4 -7 -3 -13 3 -13 6 0 17 12 25 28 8 15 15 23 16 19 0 -5 11 5 25 22 33 39 27 99 -22 225 -36 90 -35 105 5 106 22 0 13 15 -54 88 -44 49 -73 72 -88 72 -13 0 -44 6 -70 14 -47 14 -48 14 -30 -5 16 -18 16 -19 -9 -19 -39 0 -35 -6 55 -97 86 -87 86 -88 -15 -56 -60 19 -63 16 -33 -38 13 -24 45 -98 71 -164 26 -66 54 -132 61 -147 22 -42 -95 1 -223 82 -19 12 -24 12 -42 -4 -16 -15 -37 -17 -153 -16 -73 1 -151 1 -172 1 l-39 -1 24 -26 c16 -17 31 -24 46 -21 22 4 33 -8 13 -15 -6 -2 0 -9 12 -17 21 -13 22 -13 9 2 -20 25 3 20 25 -5 10 -12 13 -18 5 -13 -29 17 -3 -21 30 -43 l34 -24 -105 7 -105 7 -20 -34 c-10 -18 -29 -62 -40 -98 -23 -70 -45 -90 -101 -90 -48 0 -64 -20 -134 -157 -52 -101 -72 -132 -100 -150 -42 -26 -58 -42 -113 -113 -98 -126 -330 -152 -410 -46 l-24 31 148 -4 c102 -2 149 0 149 8 0 6 7 8 17 4 12 -5 14 -3 8 7 -6 10 -4 12 8 7 9 -3 19 -2 22 4 4 5 31 22 61 37 l54 28 -93 1 c-53 1 -107 7 -127 15 l-34 14 90 44 c141 71 214 255 149 379 -57 112 -459 110 -506 -2 -59 -138 25 -326 170 -382 108 -41 105 -47 -31 -65 -171 -24 -244 5 -306 120 -58 109 -72 136 -91 180 -23 50 -81 120 -101 120 -7 0 6 -20 29 -45 36 -40 61 -82 61 -103 0 -4 -10 7 -21 25 -22 34 -29 38 -96 48 -42 7 -63 37 -63 91 0 31 -53 114 -73 115 l-22 0 22 11 c25 12 27 28 17 113 l-6 51 -205 -3 -205 -3 -56 -34 c-103 -61 -164 -89 -153 -69 6 10 45 92 86 182 42 91 85 177 96 193 24 34 27 34 -88 4 -124 -32 -125 -27 -10 94 29 30 70 76 90 103 46 56 53 57 96 13 24 -25 76 -53 179 -97 80 -34 168 -76 196 -93 28 -18 67 -38 86 -46 53 -20 57 -26 64 -86 5 -42 20 -81 61 -153 84 -150 74 -147 118 -39 137 331 177 471 177 610 0 33 4 67 10 77 9 18 -38 111 -62 119 -12 5 -53 89 -66 135 -10 35 -8 41 25 83 l35 46 -43 47 c-24 25 -76 78 -116 118 -86 85 -86 85 -27 67 49 -14 120 -63 168 -113 46 -48 51 -25 6 28 -57 70 -131 145 -160 165 l-25 17 40 35 c47 40 42 47 -45 64 -30 6 -125 27 -210 46 -111 25 -166 33 -195 28 -49 -8 -41 4 12 17 21 6 56 15 78 20 22 6 92 14 155 19 l115 8 -145 -2 c-79 -1 -140 -1 -135 0 32 10 271 54 293 54 21 0 24 2 12 10 -8 5 -46 10 -84 10 -42 0 -66 4 -60 9 10 10 157 31 216 31 l40 0 -72 78 c-92 99 -103 121 -101 198 3 100 -74 217 -389 589 -147 174 -190 229 -190 242 0 31 -26 45 -48 26z m398 -713 c32 0 63 -78 76 -195 4 -32 18 -77 30 -99 28 -49 30 -71 7 -81 -15 -5 -12 -10 17 -26 35 -20 35 -20 5 -13 -16 4 -46 10 -66 14 -19 4 -75 33 -123 66 l-87 59 38 17 38 17 -54 1 c-51 0 -57 3 -108 51 l-53 50 85 -3 c47 -2 85 -2 85 -1 0 1 -49 28 -109 60 -61 31 -108 60 -105 63 7 6 264 28 282 23 8 -1 26 -3 42 -3z m353 -1108 l84 -39 -6 -39 c-8 -50 -6 -50 -232 -25 -264 29 -352 62 -229 88 36 7 103 24 150 38 103 30 125 27 233 -23z m-108 -232 c-8 -13 13 -90 25 -90 22 0 42 47 28 69 -7 11 -9 23 -5 27 9 10 57 -13 57 -26 0 -6 10 -24 21 -40 29 -39 9 -74 -52 -90 -71 -19 -123 6 -148 73 -17 44 -13 57 22 72 38 17 61 19 52 5z m-232 -6 c30 -5 55 -23 116 -84 70 -68 85 -79 142 -94 257 -70 263 -84 145 -319 -81 -162 -86 -166 -101 -77 -8 45 -22 80 -46 115 -61 89 -124 165 -136 165 -7 0 -13 5 -13 11 0 5 -4 8 -9 4 -31 -19 -134 117 -151 200 -7 33 -15 65 -17 72 -6 14 12 16 70 7z m979 -1085 c19 -10 18 -12 -18 -34 -84 -49 -130 -35 -61 19 36 29 49 31 79 15z"/> <path d="M3840 5133 c-14 -8 -18 -12 -9 -10 9 3 16 0 17 -6 0 -7 2 -28 4 -48 2 -20 16 -52 34 -75 16 -21 60 -84 97 -139 37 -55 87 -128 111 -163 l45 -62 6 44 c8 49 -4 75 -135 288 -108 176 -128 196 -170 171z"/> <path d="M3817 5083 c-11 -13 -21 -22 -24 -19 -3 3 0 14 8 23 13 16 12 17 -3 4 -10 -7 -18 -10 -18 -5 0 8 -300 -286 -458 -449 -41 -42 -77 -75 -79 -73 -2 2 -24 -17 -48 -43 -24 -25 -57 -54 -74 -64 l-31 -18 10 25 c24 65 -38 10 -108 -94 l-42 -63 0 79 0 79 -25 -30 c-40 -48 -94 -132 -128 -202 l-32 -65 -6 43 c-5 34 -15 -746 -13 -923 1 -44 -7 -47 -34 -13 -22 27 -34 33 -26 11 5 -13 -46 -126 -88 -194 -20 -33 -21 -38 -9 -300 6 -147 11 -313 11 -370 0 -141 40 -222 112 -222 l34 0 12 123 c7 67 12 140 12 163 0 50 63 314 118 488 8 28 14 76 13 107 -7 227 12 281 154 454 104 126 148 196 126 202 -16 4 -156 165 -245 281 -7 10 0 23 30 50 21 20 72 67 113 105 40 38 77 65 81 60 4 -4 19 -30 33 -57 l26 -50 -31 -58 c-17 -32 -28 -62 -24 -65 14 -14 150 -7 186 10 38 17 18 23 -24 7 -14 -5 -26 -8 -26 -6 0 9 62 141 68 146 4 3 8 30 9 60 3 74 39 212 60 228 9 6 14 12 11 12 -4 0 8 24 25 54 18 30 40 68 49 86 15 26 22 30 40 24 13 -4 59 -17 103 -29 l80 -22 -40 -22 c-22 -11 -47 -26 -55 -31 -8 -6 -41 -25 -73 -44 -67 -40 -64 -42 70 -52 135 -9 136 -11 31 -77 l-93 -57 80 0 80 0 -50 -49 c-41 -39 -60 -49 -98 -55 -50 -8 -65 -26 -21 -26 61 0 -88 -118 -188 -148 l-58 -18 23 -22 c13 -12 34 -22 48 -22 17 0 20 -3 11 -9 -20 -12 9 -21 76 -22 l57 -1 -35 -13 -35 -13 55 -2 c30 -1 80 -5 110 -8 l54 -7 -45 -24 -46 -25 66 -23 c36 -12 74 -23 83 -23 9 0 22 -8 28 -17 8 -14 9 -8 6 27 -20 177 -20 176 11 189 16 6 79 40 141 75 l111 63 -57 -4 c-49 -3 -54 -2 -38 9 39 27 62 50 44 44 -10 -3 -41 -8 -70 -12 l-52 -7 24 34 c13 19 41 53 63 76 70 73 5 39 -84 -43 -69 -65 -99 -86 -99 -69 0 14 81 149 125 207 137 181 131 293 -25 539 -101 157 -96 146 -64 180 15 16 26 31 23 33 -2 2 -12 -7 -22 -21z m-1076 -2556 c-6 -6 -8 -2 -4 12 6 24 -12 29 -24 7 -4 -8 -20 -17 -35 -21 l-28 -7 15 36 c18 43 19 56 3 56 -26 0 -39 18 -43 57 -5 51 35 61 55 13 24 -58 60 -57 59 3 -1 85 -24 114 -59 72 -34 -41 -80 24 -50 72 9 15 10 12 6 -17 -3 -19 -1 -42 4 -50 8 -11 9 -9 5 10 -8 36 7 52 52 53 37 2 39 4 37 32 -1 17 1 41 4 55 4 14 8 -65 10 -174 1 -119 -1 -203 -7 -209z"/> <path d="M3515 3224 c-11 -1 -69 -8 -130 -14 -113 -13 -171 -29 -105 -30 88 -1 199 -27 248 -59 27 -17 54 -31 61 -31 12 0 114 -75 192 -140 34 -29 99 -35 99 -9 0 13 -129 161 -169 194 -117 97 -124 100 -196 89z"/> <path d="M3790 3173 c107 -82 142 -124 195 -227 54 -106 66 -117 94 -92 31 29 110 21 188 -19 37 -19 57 -27 43 -17 -13 9 -40 30 -58 46 -18 16 -55 43 -82 60 -27 17 -122 88 -210 159 -89 70 -170 127 -180 127 -10 0 -27 3 -37 6 -10 4 11 -16 47 -43z"/> <path d="M3297 3146 c-93 -34 -136 -79 -190 -202 -32 -73 -36 -120 -9 -109 9 5 63 25 119 45 125 45 134 51 211 138 70 79 72 75 -38 87 -107 12 -110 14 -70 35 41 22 31 25 -23 6z m28 -47 c51 -13 59 -27 45 -79 -20 -73 -89 -108 -148 -76 -15 8 -35 17 -44 20 -31 9 -23 63 14 99 l33 32 3 -25 c5 -31 41 -82 53 -75 12 8 12 62 -1 70 -10 6 -14 45 -4 45 3 0 25 -5 49 -11z"/> <path d="M3968 1945 c-3 -3 -44 -15 -92 -26 l-86 -21 -82 -90 c-46 -49 -85 -97 -87 -106 -6 -32 -71 -137 -135 -222 -35 -47 -63 -86 -63 -86 1 -1 29 2 61 7 43 7 62 7 70 -2 8 -9 8 -10 -1 -5 -8 4 -18 -6 -27 -29 -8 -19 -37 -68 -64 -108 -27 -39 -81 -126 -120 -192 l-71 -120 -2 -173 c-2 -202 -3 -198 41 -124 100 169 249 289 299 239 5 -5 12 10 16 35 9 55 84 360 90 366 2 3 9 -8 16 -24 38 -101 51 -137 68 -203 l18 -74 17 79 c41 188 61 267 96 395 21 74 48 159 59 188 13 35 18 68 16 99 -3 26 -7 71 -9 100 -5 51 -5 52 17 41 21 -11 21 -11 4 7 -10 11 -23 27 -30 37 -7 10 -15 15 -19 12z"/></g>
<g transform="translate(-94.108475,514.964238) scale(0.100000,-0.100000)" fill="#0f172a"><path d="M1538 5127 c-16 -13 -28 -28 -28 -34 0 -6 -3 -13 -8 -15 -4 -1 -36 -48 -71 -103 -35 -55 -80 -124 -100 -153 -31 -47 -36 -62 -39 -125 -3 -72 -3 -72 14 -42 9 17 29 46 44 65 15 19 48 69 74 111 38 63 54 80 89 95 23 10 45 20 50 22 17 9 3 -22 -59 -129 -119 -203 -128 -234 -103 -351 16 -76 50 -146 95 -200 66 -79 104 -126 104 -131 0 -10 -84 15 -131 38 -60 31 -61 26 -6 -25 l42 -40 -80 -1 c-63 0 -75 -2 -55 -10 13 -6 28 -15 32 -22 3 -6 44 -34 90 -62 107 -66 130 -160 61 -252 -46 -62 -133 -18 -133 67 0 35 -9 67 -29 107 -16 32 -39 83 -50 113 -12 30 -32 69 -46 85 -19 22 -23 24 -15 8 32 -67 77 -183 71 -183 -4 0 -25 16 -47 35 -42 38 -51 33 -36 -17 6 -18 18 -78 26 -133 26 -161 47 -246 73 -303 14 -29 23 -62 20 -73 -5 -18 2 -16 58 15 62 34 205 89 256 99 13 2 -10 5 -51 6 l-75 2 123 61 c137 69 154 89 65 82 l-58 -5 70 29 c39 16 90 39 115 50 l45 22 -69 0 c-38 0 -67 2 -64 5 8 8 151 44 183 46 17 1 5 5 -25 8 l-55 6 132 28 c72 15 141 27 153 27 11 0 18 5 15 10 -3 6 -39 10 -78 10 -126 0 1 33 163 42 l45 3 -60 64 c-99 104 -115 135 -110 204 3 42 -1 69 -12 91 -29 58 -165 250 -237 335 -229 270 -317 380 -331 409 -9 17 -17 32 -18 32 -1 -1 -14 -11 -29 -23z m436 -699 c2 -7 11 -39 21 -71 9 -33 19 -84 22 -115 4 -33 18 -79 35 -111 l29 -56 -20 -16 c-21 -17 -21 -17 12 -29 50 -19 17 -22 -48 -5 -51 13 -225 114 -225 131 0 3 15 11 33 19 l32 14 -50 1 c-46 1 -55 5 -106 53 l-57 52 82 -3 81 -3 -98 54 c-137 75 -136 74 -10 82 59 3 113 8 118 10 28 10 146 4 149 -7z"/> <path d="M3859 5134 c-4 -39 -3 -104 2 -104 4 0 51 -66 105 -146 55 -80 115 -169 134 -197 l35 -51 3 48 c4 55 -15 91 -150 292 -84 125 -127 178 -129 158z"/> <path d="M3714 4967 c-118 -121 -350 -411 -428 -536 -37 -58 -51 -43 -51 54 0 52 -3 71 -10 63 -61 -76 -139 -125 -129 -80 l7 27 -22 -19 c-33 -30 -101 -133 -93 -142 4 -4 2 -4 -4 -1 -11 7 -29 -19 -25 -36 1 -5 -3 -6 -8 -2 -6 3 -8 39 -6 88 l5 82 -17 -35 c-9 -19 -16 -38 -15 -42 1 -4 -5 -5 -13 -2 -9 4 -22 -6 -35 -28 -24 -40 -21 -53 12 -53 26 1 29 -23 6 -52 -6 -8 -3 -18 11 -30 25 -21 29 -84 6 -103 -11 -9 -15 -9 -15 -1 0 7 -5 9 -11 6 -27 -17 34 -28 69 -12 15 6 30 16 34 22 7 9 8 7 8 -22 0 -5 -9 -9 -20 -9 -36 -2 -40 -4 -40 -13 0 -26 40 -13 85 30 167 155 143 146 180 69 l29 -61 -32 -59 c-29 -53 -31 -59 -15 -64 51 -15 177 -4 190 17 4 7 0 8 -11 4 -10 -4 -29 -10 -42 -13 l-24 -6 28 58 c42 86 49 110 62 201 14 107 34 163 85 243 23 36 50 80 59 98 9 17 22 32 28 32 17 0 79 50 74 59 -5 8 103 46 110 38 5 -5 -83 -89 -111 -105 -26 -15 -11 -25 62 -42 64 -14 66 -12 -60 -88 -112 -68 -113 -67 46 -78 53 -4 97 -10 97 -14 0 -6 -137 -97 -170 -112 -8 -4 25 -5 75 -1 l89 6 -52 -53 c-44 -45 -61 -55 -110 -65 -56 -12 -56 -13 -24 -20 23 -5 31 -12 28 -22 -4 -8 -6 -17 -6 -19 0 -2 -7 -4 -15 -4 -7 0 -19 -8 -24 -17 -6 -10 -11 -14 -11 -10 0 5 -15 -3 -32 -17 -18 -15 -38 -30 -43 -35 -6 -4 -17 -11 -25 -14 -8 -3 -3 -5 12 -4 15 1 24 5 22 9 -3 4 0 8 5 8 6 0 11 -6 11 -12 0 -7 9 2 20 20 20 32 35 41 42 22 2 -6 9 -1 16 11 8 12 9 18 3 14 -6 -3 -11 -2 -11 2 0 5 28 10 63 11 34 1 77 7 96 13 23 8 35 8 40 1 4 -7 18 -4 39 10 42 26 41 31 -3 12 -19 -8 -35 -10 -35 -5 0 9 89 162 100 171 61 53 117 184 127 295 7 84 -3 107 -129 301 -36 55 -69 107 -74 116 -8 15 -19 8 -80 -55z m55 -14 c-13 -34 -67 -117 -132 -200 -30 -38 -46 -68 -41 -75 4 -7 3 -10 -1 -5 -5 4 -17 -1 -28 -10 -56 -51 94 187 187 295 25 29 28 28 15 -5z"/> <path d="M2821 4271 c-26 -50 -27 -69 -4 -50 9 8 14 9 10 2 -4 -7 5 -18 25 -27 42 -22 45 -14 9 23 -17 18 -31 35 -31 39 0 4 12 -6 25 -21 17 -19 25 -23 25 -13 0 9 -9 25 -20 36 l-20 20 20 0 c11 0 20 -5 20 -12 0 -6 3 -9 6 -5 3 3 1 14 -5 24 -6 10 -11 14 -11 9 0 -5 -6 -3 -14 4 -12 9 -18 4 -35 -29z"/> <path d="M3093 3723 c-21 -25 -60 -74 -88 -107 -27 -34 -83 -105 -123 -158 -91 -121 -117 -135 -126 -70 -2 20 -2 -113 0 -297 2 -184 5 -393 5 -465 1 -72 4 -117 6 -101 2 17 11 54 19 84 8 29 13 60 10 67 -3 8 -1 14 3 14 5 0 14 24 21 53 7 28 25 99 42 157 24 87 31 135 39 280 10 195 7 186 106 301 155 181 189 241 153 267 l-29 22 -38 -47z"/> <path d="M2181 3561 c-7 -5 -11 -13 -7 -19 3 -5 -1 -12 -9 -16 -8 -3 -15 -11 -15 -18 0 -10 2 -10 8 -1 4 6 14 13 22 15 8 2 20 10 27 18 11 13 12 13 13 -4 0 -10 -8 -25 -17 -32 -16 -12 -16 -13 -1 -8 11 4 18 -1 23 -15 3 -12 13 -21 20 -21 8 0 17 -4 20 -10 3 -6 -1 -7 -10 -4 -16 7 -47 -24 -39 -38 7 -11 -4 -10 -26 2 -21 11 -38 -4 -18 -16 8 -5 6 -10 -8 -16 -14 -6 -12 -7 9 -3 16 3 27 1 27 -6 0 -6 7 -9 15 -5 8 3 15 2 15 -3 0 -5 27 -20 59 -34 33 -14 68 -34 78 -44 18 -18 20 -18 49 14 l30 32 -23 28 c-85 101 -207 213 -215 198 -5 -8 -14 -15 -20 -15 -7 0 -6 5 2 15 14 17 11 19 -9 6z"/> <path d="M1799 3260 c-121 -60 -186 -95 -199 -106 -8 -6 -34 -17 -58 -24 -186 -49 -212 -68 -348 -252 -85 -114 -186 -218 -212 -218 -5 0 -15 -6 -21 -14 -13 -15 80 1 162 29 45 15 46 10 5 -40 -18 -22 -27 -36 -20 -32 6 5 12 4 12 -2 0 -6 -8 -11 -17 -11 -15 0 -16 -2 -3 -10 15 -9 48 33 42 54 -2 5 4 4 12 -3 12 -10 16 -9 25 6 6 10 11 13 11 7 0 -15 -25 -36 -33 -27 -17 17 -4 -28 17 -59 22 -33 22 -35 4 -30 -16 4 -18 1 -13 -24 6 -28 6 -28 -11 -9 -16 19 -16 19 -10 -13 3 -18 2 -31 -2 -28 -4 2 -8 -9 -9 -24 -2 -22 2 -28 12 -23 8 3 15 0 15 -6 0 -6 -5 -11 -11 -11 -6 0 -9 -7 -5 -15 3 -8 2 -14 -2 -14 -19 3 -26 -2 -13 -10 26 -17 -15 -75 -90 -127 -133 -92 -131 -103 6 -39 94 44 100 45 129 31 17 -8 44 -20 59 -25 39 -15 102 -59 165 -116 55 -49 88 -59 129 -37 70 37 131 15 136 -49 1 -12 6 -18 16 -14 11 4 12 3 1 -10 -10 -12 -10 -15 3 -15 18 0 73 -67 63 -77 -3 -3 -23 -1 -43 5 -21 6 -65 19 -98 28 -33 10 -72 23 -86 30 -23 12 -27 10 -53 -22 -15 -19 -32 -32 -37 -28 -6 3 -5 -3 2 -13 9 -16 8 -32 -6 -84 -9 -35 -25 -91 -34 -125 -9 -34 -21 -67 -27 -75 -21 -27 -25 -44 -5 -21 26 30 42 25 56 -18 l11 -33 20 74 c28 103 44 102 74 -3 59 -213 84 -304 119 -442 l39 -150 11 52 c35 167 104 282 108 183 2 -28 11 -89 22 -134 10 -45 22 -103 26 -128 5 -43 9 -47 38 -53 69 -13 175 -125 258 -271 40 -71 40 -70 39 28 -5 311 -1 320 70 175 37 -76 30 -69 331 -334 l115 -102 -32 62 c-96 182 -97 274 -4 321 56 28 70 40 70 58 0 33 195 292 263 351 31 27 57 55 57 63 0 39 111 269 142 293 75 59 70 50 54 105 l-15 49 67 71 c116 121 165 151 382 231 52 20 110 44 128 55 l33 19 77 -30 77 -30 30 22 c17 12 79 65 139 117 l108 96 -5 65 c-3 44 -16 91 -40 147 l-36 83 31 8 31 8 -63 73 c-34 40 -67 74 -74 76 -34 10 -106 14 -101 5 3 -6 -5 -10 -19 -10 -35 0 -40 -15 -14 -37 13 -11 52 -49 88 -86 l64 -67 -79 25 c-44 14 -82 25 -84 25 -2 0 4 -11 13 -25 21 -32 158 -367 152 -372 -2 -2 -60 25 -129 60 -109 56 -126 62 -143 50 -13 -9 -57 -13 -153 -13 l-136 -1 42 -22 c48 -25 192 -129 193 -138 0 -9 -79 7 -122 25 -51 22 -60 19 -18 -5 l35 -20 -107 6 -106 6 -20 -29 c-11 -15 -30 -57 -41 -92 -29 -88 -30 -89 -94 -100 -76 -12 -68 -4 -136 -143 -70 -143 -73 -147 -128 -176 -28 -14 -49 -34 -62 -59 -86 -169 -365 -214 -456 -74 -11 17 -28 33 -37 35 -9 3 -26 19 -36 36 -11 18 -41 42 -69 57 -45 22 -55 34 -88 97 -21 40 -45 84 -55 98 -10 14 -22 38 -26 55 -8 34 -52 101 -85 129 l-23 20 14 -21 c8 -12 27 -37 41 -55 15 -19 30 -50 33 -69 l7 -35 -17 33 c-23 45 -60 72 -98 72 -45 0 -62 17 -75 75 -22 88 -49 132 -79 128 -27 -4 -10 19 20 29 5 2 6 36 2 82 l-7 78 -61 -6 c-141 -14 -285 -17 -303 -8 -15 8 -31 4 -74 -20 -123 -70 -174 -98 -181 -98 -13 0 162 383 181 394 81 50 -79 -12 -220 -85 -52 -27 -57 -24 -23 14 17 17 48 54 69 81 21 27 62 74 91 105 l52 56 -49 -3 c-36 -3 -49 0 -49 10 0 10 -2 10 -10 -2 -5 -8 -12 -12 -15 -9 -9 10 66 129 78 122 6 -3 7 -1 3 5 -9 14 23 64 35 56 5 -3 8 -1 7 4 -2 6 24 45 57 88 38 51 59 86 57 100 -3 22 59 84 83 84 6 0 21 9 33 20 20 19 60 25 124 20 20 -1 42 -35 33 -50 -9 -15 68 -4 79 12 6 8 16 13 23 11 6 -2 15 1 19 8 4 7 3 9 -4 5 -5 -3 -12 -2 -14 3 -10 26 -165 58 -199 41z m-4 -1455 c61 -20 88 -34 111 -61 18 -19 34 -30 37 -24 3 6 4 5 3 -2 -3 -13 -7 -14 -46 -17 -11 0 -20 -6 -20 -12 0 -6 -10 -19 -22 -29 -28 -23 -54 18 -35 55 9 17 8 18 -5 7 -13 -10 -17 -10 -21 0 -3 7 -6 -2 -6 -21 -1 -19 -4 -31 -8 -28 -3 4 -12 2 -20 -4 -10 -9 -13 -7 -13 9 0 11 -7 23 -16 26 -13 5 -15 14 -9 42 3 21 2 34 -3 30 -10 -6 -34 39 -25 48 9 9 11 8 98 -19z"/> <path d="M3503 3223 c-35 -2 -63 -6 -63 -8 0 -32 119 -125 159 -125 7 0 19 -7 28 -15 8 -8 19 -12 25 -9 6 4 8 3 5 -3 -6 -10 52 -50 66 -45 5 1 6 -2 3 -7 -10 -16 14 -24 30 -10 12 10 12 14 2 20 -9 6 -9 9 -1 9 19 0 24 -17 8 -30 -12 -10 -13 -16 -4 -27 10 -11 15 -10 34 7 12 11 25 17 28 13 4 -3 7 -2 7 4 0 6 -8 17 -17 24 -15 12 -16 12 -11 -2 4 -9 1 -22 -5 -28 -21 -21 -27 -11 -11 20 l16 31 -44 45 c-49 51 -171 144 -184 141 -5 -1 -37 -3 -71 -5z"/> <path d="M2051 3216 c6 -6 43 -14 74 -15 11 -1 16 -5 10 -9 -17 -12 -16 -32 2 -25 12 5 14 3 8 -7 -6 -10 -3 -12 13 -8 12 4 20 2 17 -2 -3 -5 0 -12 6 -16 19 -12 -12 -24 -64 -24 -27 0 -68 -5 -91 -11 l-44 -11 82 -79 81 -79 127 -40 c188 -60 199 -81 124 -236 -22 -46 -22 -50 -7 -73 12 -19 13 -23 2 -16 -11 6 -13 4 -8 -8 3 -9 2 -19 -3 -22 -4 -3 -7 6 -5 20 4 42 -12 28 -47 -42 -46 -91 -61 -92 -77 -7 -25 136 -172 318 -186 232 -8 -47 -38 -112 -56 -124 -7 -4 -9 -3 -6 3 3 5 1 10 -6 10 -7 0 -20 4 -29 8 -38 15 -16 -14 33 -44 52 -32 72 -33 63 -3 -5 14 -4 14 4 3 6 -8 8 -20 5 -27 -3 -9 10 -19 35 -30 40 -15 41 -17 47 -72 6 -60 9 -66 88 -206 28 -48 53 -82 55 -75 5 17 58 152 77 194 143 325 169 547 80 685 -19 30 -40 69 -46 87 -6 18 -15 33 -20 33 -12 0 -11 -7 1 -31 6 -10 8 -19 6 -19 -16 0 -26 42 -14 57 11 14 10 16 -14 10 -14 -4 -59 -3 -100 2 -115 15 -224 24 -217 17z m153 -205 c16 -26 37 17 29 62 l-6 39 31 -16 c113 -58 84 -166 -45 -166 -97 0 -149 136 -62 165 l34 12 5 -41 c3 -23 9 -47 14 -55z m169 -519 c-7 -5 -15 -32 -18 -62 -7 -64 -20 -83 -52 -75 -24 6 -34 -17 -13 -30 12 -7 4 -25 -11 -25 -5 0 -9 13 -9 28 0 15 -6 34 -12 41 -11 11 -10 13 5 8 9 -4 17 -2 17 3 0 6 -7 10 -15 10 -22 0 -18 21 5 27 11 3 20 9 20 14 0 5 5 9 11 9 5 0 8 -4 5 -8 -2 -4 4 -14 16 -21 11 -7 17 -8 14 -2 -4 5 -2 12 4 16 5 3 10 12 10 18 0 7 -7 3 -16 -8 -14 -19 -14 -19 -11 5 2 13 9 26 15 28 7 2 12 10 12 18 0 8 8 14 18 14 12 0 13 -3 5 -8z"/> <path d="M3264 3127 c-50 -27 -74 -45 -94 -72 -8 -11 2 -5 21 13 40 37 49 40 42 12 -3 -11 5 -36 18 -57 l23 -37 9 33 c5 22 5 37 -2 44 -16 16 -13 47 5 47 8 0 13 4 9 9 -3 6 3 14 12 20 35 20 -3 10 -43 -12z"/> <path d="M1852 3083 c-7 -10 -10 -12 -6 -4 5 9 3 12 -5 7 -6 -4 -9 -11 -6 -16 4 -7 -104 -94 -162 -131 -26 -16 -30 -29 -8 -29 8 0 15 4 15 8 0 9 112 90 153 111 25 12 29 12 40 -3 12 -16 13 -16 14 3 1 12 -3 21 -8 21 -5 0 -7 11 -3 25 7 29 -5 33 -24 8z"/> <path d="M3365 3087 c14 -11 17 -21 12 -47 l-7 -32 20 23 c12 15 19 19 20 10 0 -24 -98 -111 -128 -112 -64 -4 -85 0 -109 22 -18 18 -23 31 -19 51 13 66 -53 -60 -69 -130 -8 -39 -14 -40 114 4 143 49 148 52 224 137 l67 75 -31 6 c-62 12 -115 8 -94 -7z"/> <path d="M2607 2089 c-206 -49 -171 -358 52 -450 119 -49 106 -63 -73 -76 l-89 -6 79 -33 c125 -53 248 -47 377 16 l59 29 -49 -5 c-53 -7 -181 10 -196 25 -6 6 17 23 64 46 182 91 252 354 114 428 -60 32 -250 47 -338 26z m332 -93 c13 -16 -34 -49 -88 -61 -27 -6 -31 -4 -31 13 0 41 94 79 119 48z"/> <path d="M3878 1917 l-87 -22 -81 -89 c-44 -49 -78 -91 -75 -94 5 -6 6 -5 108 82 37 32 67 55 67 50 -3 -71 -48 -171 -194 -434 l-87 -155 7 -60 c18 -163 76 -339 88 -268 35 201 90 393 102 357 3 -10 15 -41 27 -69 11 -27 30 -88 42 -134 l22 -84 17 79 c28 129 55 247 66 284 5 19 17 62 26 95 9 33 30 102 46 153 35 109 35 335 0 331 -4 0 -46 -10 -94 -22z"/></g>
</svg>